<?xml version="1.0" encoding="utf-8"?>
<!-- Generator: Adobe Illustrator 27.5.0, SVG Export Plug-In . SVG Version: 6.00 Build 0)  -->
<svg version="1.1" xmlns="http://www.w3.org/2000/svg" xmlns:xlink="http://www.w3.org/1999/xlink" x="0px" y="0px"
	 viewBox="0 0 500 500" style="enable-background:new 0 0 500 500;" xml:space="preserve">
<g id="BACKGROUND">
</g>
<g id="OBJECTS">
	<g>
		<rect x="381.756" y="402.677" style="fill:#E2E2E5;" width="1.661" height="16.5"/>
		<rect x="385.638" y="402.677" style="fill:#E2E2E5;" width="1.661" height="16.5"/>
		<rect x="390.006" y="402.677" style="fill:#E2E2E5;" width="1.661" height="16.5"/>
		<rect x="393.887" y="402.677" style="fill:#E2E2E5;" width="1.661" height="16.5"/>
		<rect x="397.77" y="402.677" style="fill:#E2E2E5;" width="1.661" height="16.5"/>
		<rect x="402.138" y="402.677" style="fill:#E2E2E5;" width="1.661" height="16.5"/>
		<rect x="406.505" y="402.677" style="fill:#E2E2E5;" width="1.661" height="16.5"/>
		<rect x="410.388" y="402.677" style="fill:#E2E2E5;" width="1.661" height="16.5"/>
		<rect x="414.756" y="402.677" style="fill:#E2E2E5;" width="1.661" height="16.5"/>
		<rect x="418.638" y="402.677" style="fill:#E2E2E5;" width="1.661" height="16.5"/>
		<rect x="422.521" y="402.677" style="fill:#E2E2E5;" width="1.661" height="16.5"/>
		<rect x="426.887" y="402.677" style="fill:#E2E2E5;" width="1.661" height="16.5"/>
		<path style="fill:#E2E2E5;" d="M430.978,379.29l-4.218,15.339l-2.138-0.553l4.227-15.37l-3.202-0.881l-4.24,15.419l-1.543-0.399
			l4.246-15.442l-3.202-0.881l-4.26,15.491l-1.542-0.399l4.266-15.513l-3.202-0.881l-4.279,15.562l-2.137-0.553l4.288-15.594
			l-3.202-0.881l-4.302,15.643l-1.543-0.399l4.307-15.666l-3.202-0.881l-4.32,15.714l-2.138-0.553l4.33-15.745l-3.202-0.881
			l-4.343,15.794l-2.137-0.553l4.352-15.826l-3.202-0.881l-4.366,15.875l-0.725-0.188L383.556,392h-16.785v-0.881h-62.009h-4.429
			H93.612c-2.025,0-3.667,1.642-3.667,3.667v2.424v2.423c0,2.025,1.642,3.667,3.667,3.667h206.721h4.429h62.009v-0.623h64.83v-5.467
			v-1.327l-1.626-0.421l4.205-15.29L430.978,379.29z"/>
		<path style="fill:#E2E2E5;" d="M195.153,120.214v20.693v42.977H183.18h-2.768c-0.059,0-0.114,0.015-0.172,0.017
			c-2.174,0.092-3.911,1.87-3.911,4.066v55.503c0,2.255,1.828,4.083,4.083,4.083h49.651h16.925c2.255,0,4.083-1.828,4.083-4.083
			v-55.503c0-2.255-1.828-4.083-4.083-4.083h-2.768h-13.08v-63.67H195.153z"/>
		<path style="fill:#E2E2E5;" d="M314.543,364.931c1.565,0,2.833-1.269,2.833-2.833v-32.234V190.53v-73.636h-28.79v14.47v59.166
			v70.234v101.334c0,1.565,1.268,2.833,2.833,2.833H314.543z"/>
		<path style="fill:#E2E2E5;" d="M421.897,322.241c-3.578,0-6.811,0.939-9.139,2.45c-0.712,0.462-1.327,0.983-1.854,1.542h-45.537
			c-0.381-0.404-0.814-0.786-1.294-1.141c-2.355-1.743-5.826-2.851-9.708-2.851c-7.093,0-12.843,3.682-12.843,8.225
			c0,3.987,4.43,7.31,10.309,8.063c0.82,0.105,1.666,0.162,2.534,0.162c4.672,0,8.749-1.603,10.996-3.992H410.9
			c2.247,2.389,6.324,3.992,10.996,3.992c1.282,0,2.517-0.124,3.685-0.348c5.296-1.015,9.158-4.156,9.158-7.877
			C434.739,325.923,428.989,322.241,421.897,322.241z"/>
		<path style="fill:#E2E2E5;" d="M106.727,320.845l21.018-25.34l15.561-18.76c4.378-5.278,3.648-13.106-1.63-17.484l-19.09-15.835
			l21.952-11.561c5.46-2.876,7.877-9.243,5.98-14.911c-0.211-0.63-0.46-1.254-0.78-1.862l-26.699-50.695
			c-3.195-6.068-10.705-8.396-16.772-5.2l-50.695,26.699c-0.609,0.321-1.169,0.695-1.7,1.097c-4.768,3.602-6.375,10.217-3.5,15.675
			l18.514,35.154L49.66,261l-6.147,7.411c-4.378,5.278-3.648,13.106,1.63,17.484l44.1,36.579
			C94.521,326.853,102.349,326.123,106.727,320.845z"/>
		<path style="fill:#E2E2E5;" d="M433.624,136.482h-88.834h-0.223c-4.609,0-8.345,3.736-8.345,8.345v141.931
			c0,4.609,3.736,8.345,8.345,8.345h89.057c2.946,0,5.531-1.531,7.016-3.837c0.838-1.301,1.33-2.846,1.33-4.508V144.828
			C441.97,140.219,438.233,136.482,433.624,136.482z"/>
		<circle style="fill:#E2E2E5;" cx="210.652" cy="312.597" r="50.336"/>
		<path style="fill:#E2E2E5;" d="M434.966,62.19h-206.82L124.89,57.207c0,0-55.149-28.452-66.992-16.609
			c-0.139,0.139-0.274,0.313-0.407,0.504c-0.178,0.257-0.35,0.558-0.516,0.903c-1.211,2.513-2.114,7.286-2.706,13.174
			c-0.033,0.33-0.065,0.663-0.096,0.999c-0.468,5.047-0.718,10.828-0.749,16.66c-0.002,0.333-0.003,0.667-0.003,1
			c-0.005,4.732,0.133,9.469,0.416,13.849c0.022,0.336,0.044,0.668,0.068,0.999c0.201,2.852,0.463,5.537,0.789,7.945
			c0.317,2.344,0.694,4.422,1.129,6.15c0.085,0.337,0.172,0.66,0.261,0.969c0.527,1.822,1.131,3.155,1.815,3.839
			c10.537,10.537,55.359-10.826,65.112-15.664c1.208-0.599,1.88-0.946,1.88-0.946l103.256-4.983h206.82
			c3.958,0,7.167-3.209,7.167-7.167v-3.592v-5.882C442.132,65.398,438.924,62.19,434.966,62.19z"/>
		<path style="fill:#E2E2E5;" d="M366.311,430.661H159.59h-4.429H93.281c-3.231-3.441-9.114-5.744-15.84-5.744
			c-10.205,0-18.478,5.298-18.478,11.834c0,2.419,1.138,4.666,3.083,6.54c3.31,3.19,8.967,5.295,15.396,5.295
			c6.722,0,12.589-2.307,15.822-5.744h61.897h4.429h206.721c2.025,0,3.667-1.642,3.667-3.667v-2.424v-2.423
			C369.978,432.302,368.336,430.661,366.311,430.661z"/>
	</g>
	<g>
		<path style="fill:#9DAAB2;" d="M182.24,179.901c-2.174,0.092-3.911,1.87-3.911,4.066v55.503c0,2.255,1.828,4.083,4.083,4.083
			h49.651C208.624,231.206,191.174,205.542,182.24,179.901z"/>
		<path style="fill:#D1E2ED;" d="M253.072,239.47v-55.503c0-2.255-1.828-4.083-4.083-4.083h-66.576
			c-0.059,0-0.114,0.015-0.172,0.017c8.934,25.641,26.384,51.305,49.823,63.653h16.925
			C251.244,243.554,253.072,241.726,253.072,239.47z"/>
		<path style="fill:#6E103D;" d="M181.097,183.967v39.171c0,2.255,1.828,4.083,4.083,4.083h25.495
			c-12.523-12.914-22.126-29.612-28.103-46.372C181.678,181.598,181.097,182.709,181.097,183.967z"/>
		<path style="fill:#921551;" d="M250.303,223.138v-39.171c0-2.255-1.828-4.083-4.083-4.083h-61.04
			c-0.997,0-1.899,0.372-2.608,0.965c5.977,16.76,15.581,33.458,28.103,46.372h35.544
			C248.475,227.221,250.303,225.393,250.303,223.138z"/>
		<path d="M228.328,179.884c-13.453-10.742-23.612-26.416-31.175-42.977v42.977H228.328z"/>
		<path style="fill:#333333;" d="M228.328,179.884h4.812v-63.67h-35.987v20.693C204.716,153.467,214.875,169.141,228.328,179.884z"
			/>
	</g>
	<g>
		<path style="fill:#9DAAB2;" d="M290.587,256.764v101.334c0,1.565,1.268,2.833,2.833,2.833h23.123c1.565,0,2.833-1.269,2.833-2.833
			v-32.234C312.572,315.63,307.934,303.416,303,293C297.616,281.223,293.596,269.106,290.587,256.764z"/>
		<path style="fill:#D1E2ED;" d="M290.587,186.53v70.234c3.009,12.342,7.03,24.459,12.413,36.236
			c4.934,10.416,9.572,22.63,16.377,32.863V186.53H290.587z"/>
		<path style="fill:#976E6B;" d="M293.222,266.61v81.083c0,1.565,1.268,2.833,2.833,2.833h17.852c1.565,0,2.833-1.268,2.833-2.833
			v-26.054c-5.423-9.26-9.471-19.624-13.741-28.639C299.055,284.371,295.843,275.559,293.222,266.61z"/>
		<path style="fill:#C9938E;" d="M293.222,186.53v80.08c2.621,8.949,5.833,17.761,9.778,26.39
			c4.27,9.015,8.318,19.379,13.741,28.639V186.53H293.222z"/>
		<path d="M290.587,186.53h26.435c-12.619-15.832-19.87-38.783-26.435-59.166V186.53z"/>
		<path style="fill:#333333;" d="M319.377,112.894h-28.79v14.47c6.565,20.383,13.816,43.333,26.435,59.166h2.355V112.894z"/>
	</g>
	<g>
		<path style="fill:#E1CEB5;" d="M125.039,160.398c-3.195-6.068-10.705-8.396-16.772-5.2l-50.695,26.699
			c-0.609,0.321-1.169,0.695-1.7,1.097c27.201,19.859,62.359,29.16,96.647,29.961c-0.211-0.63-0.46-1.254-0.78-1.862
			L125.039,160.398z"/>
		<path style="fill:#DAC2A3;" d="M52.372,198.668l26.699,50.695c3.196,6.067,10.705,8.396,16.772,5.2l50.695-26.699
			c5.46-2.876,7.877-9.243,5.98-14.911c-34.287-0.801-69.445-10.102-96.647-29.961C51.104,186.594,49.497,193.21,52.372,198.668z"/>
		<path style="fill:#E9DAC8;" d="M143.676,255.261l-44.1-36.579c-5.278-4.378-13.106-3.648-17.484,1.63L51.66,257
			c19.262,22.905,46.529,41.065,78.084,34.505l15.561-18.76C149.684,267.467,148.954,259.639,143.676,255.261z"/>
		<path style="fill:#E1CEB5;" d="M51.66,257l-6.147,7.411c-4.378,5.278-3.648,13.106,1.63,17.484l44.1,36.579
			c5.278,4.378,13.106,3.648,17.484-1.63l21.018-25.34C98.189,298.065,70.922,279.905,51.66,257z"/>
	</g>
	<g>
		<path d="M346.791,132.482h-0.223c-4.609,0-8.345,3.736-8.345,8.345v141.931c0,4.609,3.736,8.345,8.345,8.345h89.057
			c2.946,0,5.531-1.531,7.016-3.837C388.865,254.64,360.915,191.711,346.791,132.482z"/>
		<path style="fill:#333333;" d="M443.97,140.828c0-4.609-3.736-8.345-8.345-8.345h-88.834
			c14.124,59.228,42.074,122.158,95.849,154.785c0.838-1.301,1.33-2.846,1.33-4.508V140.828z"/>
		<path style="fill:#FFCADE;" d="M432.897,145.217h-82.864c2.506,9.24,5.368,18.509,8.624,27.683h74.239V145.217z"/>
		<path style="fill:#BF98A7;" d="M349.849,145.217v27.683h8.808c-3.257-9.174-6.118-18.443-8.624-27.683H349.849z"/>
		<path style="fill:#BF708E;" d="M349.849,179.764v27.683h23.392c-4.49-8.999-8.496-18.272-12.065-27.683H349.849z"/>
		<path style="fill:#FF95BD;" d="M432.897,179.764h-71.721c3.569,9.411,7.575,18.684,12.065,27.683h59.655V179.764z"/>
		<path style="fill:#8F4561;" d="M349.849,214.312v27.683h44.314c-6.427-8.736-12.199-18.023-17.376-27.683H349.849z"/>
		<path style="fill:#BF5C81;" d="M432.897,214.312h-56.109c5.177,9.66,10.949,18.946,17.376,27.683h38.734V214.312z"/>
		<path style="fill:#602F41;" d="M399.447,248.86h-49.598v27.683h77.347C416.879,268.414,407.668,259.079,399.447,248.86z"/>
		<path style="fill:#803E56;" d="M432.897,248.86h-33.45c8.221,10.219,17.433,19.554,27.749,27.683h5.7V248.86z"/>
	</g>
	<g>
		<circle style="fill:#333333;" cx="212.652" cy="308.597" r="50.336"/>
		<path style="fill:#F9B6B9;" d="M249.742,308.597c0-20.484-16.606-37.09-37.09-37.09c-9.424,0-18.022,3.521-24.565,9.312
			c-0.054,1.07-0.087,2.133-0.087,3.181c1.781,24.941,21.816,47.488,45.96,54.947C243.501,332.235,249.742,321.148,249.742,308.597z
			"/>
		<path style="fill:#F8A4A7;" d="M188,284c0-1.048,0.033-2.111,0.087-3.181c-7.678,6.795-12.525,16.718-12.525,27.778
			c0,20.484,16.606,37.09,37.09,37.09c7.933,0,15.278-2.499,21.308-6.74C209.816,331.488,189.781,308.941,188,284z"/>
	</g>
	<g>
		<g>
			<defs>
				<path id="SVGID_1_" d="M59.898,103.589c11.843,11.843,66.992-16.61,66.992-16.61V53.207c0,0-55.149-28.452-66.992-16.61
					C53.928,42.568,53.928,97.619,59.898,103.589z"/>
			</defs>
			<use xlink:href="#SVGID_1_"  style="overflow:visible;fill:#6E3010;"/>
			<clipPath id="SVGID_00000100340221650948216400000000675101280381128845_">
				<use xlink:href="#SVGID_1_"  style="overflow:visible;"/>
			</clipPath>
			<path style="clip-path:url(#SVGID_00000100340221650948216400000000675101280381128845_);fill:#53240C;" d="M146.766,43.107
				c-8.619,14.377-21.889,25.631-36.734,33.416c-14.845,7.785-31.244,12.253-47.794,14.909c-3.53,0.566-7.331,1.177-9.874,3.689
				c-4.806,4.748-2.328,12.804,0.446,18.964c17.858,7.401,38.302,8.509,56.394,1.699c18.092-6.81,33.647-19.51,45.436-34.83
				c11.647-15.135,19.864-35.981,11.388-53.094c-1.009,1.38-2.019,2.76-3.028,4.141"/>
			
				<rect x="102.551" y="-4.898" transform="matrix(0.2376 -0.9714 0.9714 0.2376 31.6754 136.9015)" style="clip-path:url(#SVGID_00000100340221650948216400000000675101280381128845_);fill:#8B5940;" width="1" height="106.34"/>
			
				<rect x="105.266" y="3.318" transform="matrix(0.1855 -0.9827 0.9827 0.1855 26.1802 153.6421)" style="clip-path:url(#SVGID_00000100340221650948216400000000675101280381128845_);fill:#8B5940;" width="1" height="115.422"/>
			
				<rect x="105.989" y="14.479" transform="matrix(0.0224 -0.9998 0.9998 0.0224 33.6453 175.3669)" style="clip-path:url(#SVGID_00000100340221650948216400000000675101280381128845_);fill:#8B5940;" width="1" height="112.003"/>
			
				<rect x="51.439" y="77.697" transform="matrix(0.9932 -0.1162 0.1162 0.9932 -8.3619 12.9823)" style="clip-path:url(#SVGID_00000100340221650948216400000000675101280381128845_);fill:#8B5940;" width="111.414" height="1"/>
			
				<rect x="52.991" y="89.673" transform="matrix(0.9848 -0.174 0.174 0.9848 -14.0183 20.4094)" style="clip-path:url(#SVGID_00000100340221650948216400000000675101280381128845_);fill:#8B5940;" width="112.853" height="1"/>
		</g>
		<g>
			<path style="fill:#333333;" d="M444.132,71.238v-5.882c0-3.958-3.209-7.167-7.167-7.167h-206.82v13.048H444.132z"/>
			<polygon style="fill:#D0CCCE;" points="226.547,58.19 230.146,58.19 126.89,53.207 126.89,71.238 226.547,71.238 			"/>
			<rect x="226.547" y="58.19" style="fill:#D0CCCE;" width="3.599" height="13.048"/>
			<path d="M230.146,81.997h206.82c3.958,0,7.167-3.209,7.167-7.167v-3.592H230.146V81.997z"/>
			<polygon style="fill:#9C999B;" points="230.146,81.997 226.547,81.997 226.547,71.238 126.89,71.238 126.89,86.98 			"/>
			<rect x="226.547" y="71.238" style="fill:#9C999B;" width="3.599" height="10.759"/>
		</g>
	</g>
	<g>
		<rect x="383.756" y="398.677" style="fill:#333333;" width="1.661" height="16.5"/>
		<rect x="387.638" y="398.677" style="fill:#333333;" width="1.661" height="16.5"/>
		<rect x="392.006" y="398.677" style="fill:#333333;" width="1.661" height="16.5"/>
		<rect x="395.887" y="398.677" style="fill:#333333;" width="1.661" height="16.5"/>
		<rect x="399.77" y="398.677" style="fill:#333333;" width="1.661" height="16.5"/>
		<rect x="404.138" y="398.677" style="fill:#333333;" width="1.661" height="16.5"/>
		<rect x="408.505" y="398.677" style="fill:#333333;" width="1.661" height="16.5"/>
		<rect x="412.388" y="398.677" style="fill:#333333;" width="1.661" height="16.5"/>
		<rect x="416.756" y="398.677" style="fill:#333333;" width="1.661" height="16.5"/>
		<rect x="420.638" y="398.677" style="fill:#333333;" width="1.661" height="16.5"/>
		<rect x="424.521" y="398.677" style="fill:#333333;" width="1.661" height="16.5"/>
		<rect x="428.887" y="398.677" style="fill:#333333;" width="1.661" height="16.5"/>
		
			<rect x="385.831" y="374.367" transform="matrix(0.2652 -0.9642 0.9642 0.2652 -71.3836 658.3863)" style="fill:#333333;" width="20.885" height="3.321"/>
		
			<rect x="391.161" y="375.834" transform="matrix(0.2652 -0.9642 0.9642 0.2652 -68.881 664.6029)" style="fill:#333333;" width="20.885" height="3.321"/>
		
			<rect x="396.492" y="377.299" transform="matrix(0.2652 -0.9642 0.9642 0.2652 -66.377 670.8196)" style="fill:#333333;" width="20.885" height="3.321"/>
		
			<rect x="401.23" y="378.602" transform="matrix(0.2652 -0.9642 0.9642 0.2652 -64.1509 676.3466)" style="fill:#333333;" width="20.886" height="3.321"/>
		
			<rect x="406.56" y="380.068" transform="matrix(0.2652 -0.9642 0.9642 0.2652 -61.6478 682.5629)" style="fill:#333333;" width="20.885" height="3.321"/>
		
			<rect x="411.298" y="381.37" transform="matrix(0.2652 -0.9642 0.9642 0.2652 -59.4251 688.0838)" style="fill:#333333;" width="20.885" height="3.321"/>
		
			<rect x="416.036" y="382.674" transform="matrix(0.2652 -0.9642 0.9642 0.2652 -57.1982 693.613)" style="fill:#333333;" width="20.885" height="3.321"/>
		
			<rect x="421.368" y="384.139" transform="matrix(0.2652 -0.9642 0.9642 0.2652 -54.6932 699.8311)" style="fill:#333333;" width="20.885" height="3.321"/>
		<polygon style="fill:#A39899;" points="433.601,393.209 433.601,391.882 392.351,381.206 385.556,388 368.771,388 
			368.771,393.209 		"/>
		<polygon style="fill:#D0CCCE;" points="359.836,393.209 359.836,388 368.771,388 368.771,387.119 306.762,387.119 
			306.762,393.209 		"/>
		<rect x="359.836" y="388" style="fill:#D0CCCE;" width="8.936" height="5.209"/>
		<path style="fill:#333333;" d="M302.333,387.119H95.612c-2.025,0-3.667,1.642-3.667,3.667v2.424h210.388V387.119z"/>
		<rect x="302.333" y="387.119" style="fill:#333333;" width="4.429" height="6.09"/>
		<rect x="368.771" y="393.209" style="fill:#7A7273;" width="64.83" height="5.467"/>
		<polygon style="fill:#9C999B;" points="359.836,393.209 306.762,393.209 306.762,399.3 368.771,399.3 368.771,398.677 
			359.836,398.677 		"/>
		<rect x="359.836" y="393.209" style="fill:#9C999B;" width="8.936" height="5.467"/>
		<path d="M95.612,399.3h206.721v-6.09H91.945v2.423C91.945,397.658,93.587,399.3,95.612,399.3z"/>
		<rect x="302.333" y="393.209" width="4.429" height="6.09"/>
	</g>
	<g>
		<path style="fill:#DAC2A3;" d="M96.509,428.216c-2.779-4.285-9.371-7.3-17.067-7.3c-10.205,0-18.478,5.298-18.478,11.834
			c0,2.419,1.138,4.666,3.083,6.54C75.611,441.225,88.665,436.816,96.509,428.216z"/>
		<path style="fill:#A3927A;" d="M64.046,439.291c3.31,3.19,8.967,5.295,15.396,5.295c10.205,0,18.478-5.298,18.478-11.834
			c0-1.607-0.505-3.137-1.411-4.534C88.665,436.816,75.611,441.225,64.046,439.291z"/>
		<rect x="95.152" y="426.661" style="fill:#D0CCCE;" width="62.009" height="6.09"/>
		<path style="fill:#333333;" d="M371.978,432.751v-2.423c0-2.025-1.642-3.667-3.667-3.667H161.59v6.09H371.978z"/>
		<rect x="157.161" y="426.661" style="fill:#333333;" width="4.429" height="6.09"/>
		<rect x="95.152" y="432.751" style="fill:#7A7273;" width="62.009" height="6.09"/>
		<path d="M161.59,438.841h206.721c2.025,0,3.667-1.642,3.667-3.667v-2.424H161.59V438.841z"/>
		<rect x="157.161" y="432.751" width="4.429" height="6.09"/>
	</g>
	<g>
		<path style="fill:#E1CEB5;" d="M414.757,320.691c-2.288,1.485-3.703,3.524-3.703,5.775c0,4.543,5.75,8.225,12.843,8.225
			c1.282,0,2.517-0.124,3.685-0.348C422.292,331.101,417.732,326.116,414.757,320.691z"/>
		<path style="fill:#E9DAC8;" d="M436.739,326.466c0-4.543-5.75-8.225-12.843-8.225c-3.578,0-6.811,0.939-9.139,2.45
			c1.999,5.172,11.551,12.872,12.824,13.652C432.877,333.329,436.739,330.188,436.739,326.466z"/>
		<path style="fill:#E9DAC8;" d="M366.073,321.092c-2.355-1.743-5.826-2.851-9.708-2.851c-7.093,0-12.843,3.682-12.843,8.225
			c0,3.987,4.43,7.31,10.309,8.063C359.19,331.704,363.224,326.766,366.073,321.092z"/>
		<path style="fill:#E1CEB5;" d="M366.073,321.092c-2.848,5.674-6.883,10.612-12.242,13.438c0.82,0.105,1.666,0.162,2.534,0.162
			c7.093,0,12.843-3.682,12.843-8.225C369.207,324.409,368.021,322.534,366.073,321.092z"/>
		<g>
			<rect x="366.802" y="322.233" style="fill:#333333;" width="46.176" height="4.233"/>
			<rect x="366.802" y="326.466" width="46.176" height="4.233"/>
		</g>
	</g>
</g>
<g id="DESIGNED_BY_FREEPIK">
	<g>
		<g>
			<path style="fill:#AAAAAC;" d="M179.552,472.293v-0.161c-0.218,0.249-0.433,0.452-0.644,0.608
				c-0.212,0.157-0.441,0.276-0.689,0.357c-0.247,0.082-0.517,0.122-0.81,0.122c-0.388,0-0.747-0.082-1.078-0.246
				c-0.33-0.164-0.616-0.399-0.857-0.704c-0.242-0.305-0.425-0.662-0.549-1.074c-0.124-0.412-0.187-0.857-0.187-1.335
				c0-1.013,0.247-1.804,0.742-2.369c0.495-0.565,1.146-0.848,1.953-0.848c0.467,0,0.861,0.081,1.181,0.24
				c0.321,0.16,0.633,0.408,0.938,0.739v-2.392c0-0.333,0.066-0.583,0.199-0.754c0.132-0.17,0.321-0.255,0.567-0.255
				c0.245,0,0.434,0.078,0.567,0.234c0.133,0.157,0.199,0.386,0.199,0.691v7.147c0,0.309-0.071,0.54-0.214,0.694
				c-0.142,0.154-0.326,0.231-0.552,0.231c-0.221,0-0.405-0.08-0.549-0.24C179.624,472.817,179.552,472.589,179.552,472.293z
				 M176.364,469.912c0,0.439,0.068,0.813,0.205,1.122c0.137,0.309,0.324,0.541,0.561,0.697c0.238,0.157,0.497,0.236,0.778,0.236
				c0.285,0,0.545-0.074,0.781-0.223c0.235-0.148,0.423-0.376,0.564-0.682c0.141-0.307,0.21-0.691,0.21-1.149
				c0-0.432-0.07-0.803-0.21-1.114c-0.14-0.31-0.33-0.547-0.57-0.712c-0.24-0.164-0.502-0.245-0.786-0.245
				c-0.297,0-0.562,0.084-0.795,0.252c-0.234,0.168-0.415,0.409-0.543,0.724C176.428,469.131,176.364,469.496,176.364,469.912z"/>
			<path style="fill:#AAAAAC;" d="M186.698,470.322h-3.169c0.004,0.367,0.078,0.692,0.223,0.973
				c0.144,0.281,0.336,0.493,0.576,0.635c0.24,0.143,0.504,0.213,0.793,0.213c0.194,0,0.371-0.022,0.531-0.067
				c0.16-0.046,0.315-0.117,0.466-0.214c0.15-0.097,0.289-0.201,0.415-0.312c0.126-0.111,0.29-0.262,0.493-0.452
				c0.083-0.071,0.202-0.107,0.357-0.107c0.166,0,0.3,0.046,0.403,0.137c0.103,0.092,0.155,0.219,0.155,0.386
				c0,0.146-0.058,0.317-0.172,0.513c-0.116,0.196-0.289,0.384-0.52,0.564c-0.232,0.18-0.522,0.329-0.873,0.448
				c-0.35,0.119-0.753,0.178-1.208,0.178c-1.04,0-1.85-0.297-2.428-0.891c-0.578-0.593-0.866-1.399-0.866-2.416
				c0-0.479,0.071-0.924,0.213-1.332c0.143-0.41,0.351-0.761,0.623-1.054c0.273-0.293,0.609-0.517,1.009-0.674
				c0.4-0.156,0.843-0.234,1.33-0.234c0.633,0,1.176,0.132,1.629,0.4c0.454,0.267,0.794,0.612,1.019,1.035
				c0.225,0.424,0.339,0.856,0.339,1.294c0,0.408-0.117,0.672-0.35,0.793C187.45,470.261,187.122,470.322,186.698,470.322z
				 M183.528,469.402h2.939c-0.039-0.554-0.19-0.969-0.448-1.244c-0.259-0.275-0.6-0.413-1.024-0.413
				c-0.404,0-0.735,0.139-0.994,0.418C183.741,468.442,183.584,468.855,183.528,469.402z"/>
			<path style="fill:#AAAAAC;" d="M194.082,471.099c0,0.447-0.108,0.831-0.327,1.149c-0.217,0.319-0.539,0.56-0.965,0.725
				c-0.425,0.164-0.943,0.246-1.552,0.246c-0.582,0-1.08-0.089-1.496-0.267c-0.415-0.178-0.722-0.401-0.92-0.667
				c-0.198-0.268-0.297-0.535-0.297-0.805c0-0.178,0.063-0.33,0.19-0.456c0.126-0.126,0.287-0.19,0.481-0.19
				c0.17,0,0.3,0.042,0.391,0.125c0.091,0.083,0.178,0.2,0.261,0.35c0.166,0.29,0.366,0.504,0.597,0.648
				c0.231,0.142,0.547,0.214,0.947,0.214c0.324,0,0.59-0.073,0.798-0.217c0.208-0.145,0.311-0.31,0.311-0.496
				c0-0.285-0.107-0.492-0.324-0.622c-0.216-0.131-0.571-0.256-1.066-0.375c-0.558-0.138-1.012-0.284-1.362-0.436
				c-0.35-0.151-0.63-0.353-0.84-0.602c-0.21-0.25-0.315-0.557-0.315-0.92c0-0.324,0.097-0.631,0.291-0.92
				c0.194-0.288,0.48-0.519,0.859-0.691c0.377-0.173,0.833-0.259,1.367-0.259c0.419,0,0.797,0.043,1.131,0.131
				c0.335,0.086,0.614,0.204,0.837,0.35c0.224,0.146,0.394,0.308,0.51,0.486c0.117,0.178,0.175,0.352,0.175,0.523
				c0,0.185-0.062,0.338-0.186,0.457c-0.125,0.118-0.301,0.178-0.532,0.178c-0.166,0-0.308-0.048-0.424-0.143
				c-0.117-0.095-0.25-0.237-0.401-0.427c-0.123-0.158-0.266-0.285-0.433-0.38c-0.166-0.095-0.392-0.142-0.677-0.142
				c-0.293,0-0.536,0.062-0.73,0.187c-0.194,0.124-0.291,0.279-0.291,0.465c0,0.171,0.071,0.31,0.213,0.419
				c0.143,0.109,0.334,0.2,0.576,0.27c0.242,0.071,0.573,0.157,0.997,0.261c0.502,0.123,0.912,0.27,1.231,0.44
				c0.318,0.17,0.56,0.371,0.725,0.603C194,470.538,194.082,470.802,194.082,471.099z"/>
			<path style="fill:#AAAAAC;" d="M195.738,465.876c-0.226,0-0.418-0.07-0.579-0.208c-0.16-0.138-0.24-0.334-0.24-0.588
				c0-0.23,0.082-0.418,0.246-0.567c0.164-0.149,0.355-0.223,0.573-0.223c0.21,0,0.396,0.067,0.558,0.202
				c0.162,0.135,0.244,0.33,0.244,0.588c0,0.25-0.08,0.444-0.238,0.585C196.143,465.805,195.955,465.876,195.738,465.876z
				 M196.539,467.549v4.683c0,0.325-0.077,0.571-0.232,0.737c-0.155,0.166-0.35,0.249-0.588,0.249c-0.238,0-0.431-0.085-0.579-0.255
				c-0.149-0.17-0.222-0.414-0.222-0.73v-4.636c0-0.32,0.074-0.561,0.222-0.724c0.148-0.162,0.341-0.243,0.579-0.243
				c0.238,0,0.433,0.081,0.588,0.243C196.462,467.035,196.539,467.261,196.539,467.549z"/>
			<path style="fill:#AAAAAC;" d="M203.639,467.817v4.707c0,0.538-0.058,1.001-0.173,1.39c-0.114,0.387-0.298,0.708-0.552,0.961
				c-0.253,0.253-0.585,0.441-0.994,0.563c-0.41,0.123-0.919,0.184-1.529,0.184c-0.558,0-1.056-0.078-1.496-0.234
				c-0.439-0.157-0.777-0.358-1.015-0.605c-0.237-0.247-0.357-0.502-0.357-0.763c0-0.198,0.068-0.36,0.202-0.483
				c0.134-0.125,0.297-0.187,0.487-0.187c0.237,0,0.445,0.105,0.623,0.314c0.087,0.107,0.177,0.216,0.27,0.324
				c0.093,0.109,0.197,0.202,0.309,0.28c0.113,0.076,0.249,0.134,0.406,0.172c0.158,0.037,0.341,0.056,0.546,0.056
				c0.42,0,0.745-0.058,0.977-0.175c0.232-0.117,0.394-0.28,0.487-0.49c0.093-0.209,0.147-0.433,0.163-0.673
				c0.016-0.24,0.027-0.624,0.035-1.155c-0.25,0.349-0.537,0.615-0.864,0.797c-0.326,0.182-0.715,0.273-1.166,0.273
				c-0.542,0-1.016-0.139-1.422-0.416c-0.405-0.277-0.717-0.665-0.934-1.163c-0.218-0.499-0.326-1.074-0.326-1.727
				c0-0.486,0.066-0.927,0.198-1.318c0.133-0.393,0.322-0.723,0.567-0.992c0.245-0.269,0.528-0.472,0.849-0.608
				c0.321-0.136,0.673-0.204,1.057-0.204c0.459,0,0.857,0.089,1.193,0.264c0.336,0.177,0.649,0.453,0.938,0.829v-0.22
				c0-0.281,0.069-0.498,0.208-0.653c0.139-0.154,0.317-0.231,0.535-0.231c0.313,0,0.52,0.103,0.623,0.306
				C203.587,467.139,203.639,467.433,203.639,467.817z M198.943,469.871c0,0.657,0.143,1.154,0.43,1.49
				c0.287,0.337,0.658,0.505,1.113,0.505c0.269,0,0.523-0.073,0.762-0.217c0.24-0.145,0.435-0.362,0.585-0.653
				c0.15-0.291,0.226-0.644,0.226-1.06c0-0.66-0.145-1.176-0.436-1.543c-0.291-0.368-0.674-0.552-1.149-0.552
				c-0.463,0-0.834,0.176-1.113,0.529C199.082,468.721,198.943,469.222,198.943,469.871z"/>
			<path style="fill:#AAAAAC;" d="M206.214,467.526v0.196c0.285-0.376,0.596-0.652,0.935-0.828c0.338-0.176,0.727-0.264,1.166-0.264
				c0.427,0,0.809,0.093,1.146,0.28c0.336,0.186,0.588,0.449,0.753,0.789c0.108,0.198,0.176,0.413,0.208,0.641
				c0.032,0.23,0.048,0.522,0.048,0.879v3.015c0,0.325-0.075,0.571-0.223,0.737c-0.148,0.166-0.341,0.249-0.579,0.249
				c-0.242,0-0.437-0.085-0.588-0.255c-0.151-0.17-0.225-0.414-0.225-0.73v-2.701c0-0.534-0.074-0.943-0.223-1.226
				c-0.149-0.283-0.444-0.425-0.888-0.425c-0.288,0-0.552,0.086-0.789,0.258c-0.237,0.173-0.412,0.41-0.522,0.71
				c-0.079,0.242-0.119,0.692-0.119,1.353v2.03c0,0.328-0.077,0.576-0.228,0.74c-0.152,0.164-0.349,0.246-0.59,0.246
				c-0.234,0-0.426-0.085-0.576-0.255c-0.15-0.17-0.225-0.414-0.225-0.73v-4.683c0-0.309,0.067-0.54,0.202-0.692
				c0.135-0.152,0.319-0.228,0.552-0.228c0.143,0,0.272,0.034,0.387,0.101c0.114,0.068,0.207,0.169,0.276,0.302
				C206.179,467.167,206.214,467.332,206.214,467.526z"/>
			<path style="fill:#AAAAAC;" d="M216.073,470.322h-3.17c0.004,0.367,0.078,0.692,0.223,0.973c0.144,0.281,0.336,0.493,0.576,0.635
				c0.239,0.143,0.503,0.213,0.792,0.213c0.194,0,0.371-0.022,0.532-0.067c0.16-0.046,0.315-0.117,0.466-0.214
				c0.15-0.097,0.288-0.201,0.416-0.312c0.126-0.111,0.29-0.262,0.492-0.452c0.083-0.071,0.202-0.107,0.356-0.107
				c0.166,0,0.301,0.046,0.404,0.137c0.103,0.092,0.154,0.219,0.154,0.386c0,0.146-0.057,0.317-0.172,0.513
				c-0.115,0.196-0.288,0.384-0.52,0.564c-0.232,0.18-0.522,0.329-0.872,0.448c-0.35,0.119-0.753,0.178-1.208,0.178
				c-1.041,0-1.85-0.297-2.428-0.891c-0.577-0.593-0.866-1.399-0.866-2.416c0-0.479,0.071-0.924,0.214-1.332
				c0.143-0.41,0.351-0.761,0.624-1.054c0.273-0.293,0.609-0.517,1.009-0.674c0.399-0.156,0.843-0.234,1.33-0.234
				c0.633,0,1.176,0.132,1.629,0.4c0.453,0.267,0.793,0.612,1.019,1.035c0.225,0.424,0.338,0.856,0.338,1.294
				c0,0.408-0.117,0.672-0.35,0.793C216.825,470.261,216.497,470.322,216.073,470.322z M212.903,469.402h2.938
				c-0.039-0.554-0.189-0.969-0.448-1.244c-0.259-0.275-0.6-0.413-1.024-0.413c-0.404,0-0.736,0.139-0.995,0.418
				C213.115,468.442,212.959,468.855,212.903,469.402z"/>
			<path style="fill:#AAAAAC;" d="M222.679,472.293v-0.161c-0.218,0.249-0.432,0.452-0.644,0.608
				c-0.212,0.157-0.441,0.276-0.688,0.357c-0.247,0.082-0.517,0.122-0.81,0.122c-0.389,0-0.747-0.082-1.078-0.246
				c-0.331-0.164-0.616-0.399-0.858-0.704c-0.242-0.305-0.424-0.662-0.549-1.074c-0.125-0.412-0.187-0.857-0.187-1.335
				c0-1.013,0.247-1.804,0.742-2.369c0.495-0.565,1.146-0.848,1.953-0.848c0.467,0,0.861,0.081,1.181,0.24
				c0.32,0.16,0.633,0.408,0.938,0.739v-2.392c0-0.333,0.066-0.583,0.199-0.754c0.132-0.17,0.322-0.255,0.567-0.255
				c0.245,0,0.434,0.078,0.567,0.234c0.133,0.157,0.199,0.386,0.199,0.691v7.147c0,0.309-0.071,0.54-0.214,0.694
				c-0.143,0.154-0.326,0.231-0.552,0.231c-0.222,0-0.405-0.08-0.549-0.24C222.751,472.817,222.679,472.589,222.679,472.293z
				 M219.492,469.912c0,0.439,0.068,0.813,0.204,1.122c0.137,0.309,0.324,0.541,0.562,0.697c0.237,0.157,0.496,0.236,0.777,0.236
				c0.285,0,0.546-0.074,0.781-0.223c0.236-0.148,0.424-0.376,0.564-0.682c0.141-0.307,0.211-0.691,0.211-1.149
				c0-0.432-0.07-0.803-0.211-1.114c-0.14-0.31-0.33-0.547-0.57-0.712c-0.24-0.164-0.502-0.245-0.787-0.245
				c-0.296,0-0.562,0.084-0.795,0.252c-0.233,0.168-0.414,0.409-0.543,0.724C219.556,469.131,219.492,469.496,219.492,469.912z"/>
			<path style="fill:#AAAAAC;" d="M229.303,465.145v2.475c0.304-0.316,0.615-0.559,0.932-0.727c0.316-0.168,0.709-0.252,1.175-0.252
				c0.538,0,1.01,0.128,1.416,0.382c0.405,0.256,0.72,0.626,0.944,1.111c0.223,0.484,0.336,1.06,0.336,1.725
				c0,0.491-0.063,0.94-0.187,1.35c-0.125,0.409-0.306,0.765-0.543,1.065c-0.238,0.301-0.525,0.534-0.864,0.698
				c-0.339,0.164-0.712,0.246-1.119,0.246c-0.25,0-0.484-0.029-0.703-0.089c-0.22-0.059-0.407-0.137-0.561-0.234
				c-0.154-0.096-0.286-0.197-0.395-0.3c-0.109-0.103-0.253-0.258-0.431-0.463v0.161c0,0.304-0.073,0.535-0.22,0.692
				c-0.146,0.156-0.332,0.234-0.558,0.234c-0.23,0-0.413-0.077-0.549-0.234c-0.137-0.157-0.205-0.388-0.205-0.692v-7.077
				c0-0.328,0.066-0.577,0.198-0.745c0.133-0.168,0.318-0.252,0.555-0.252c0.25,0,0.441,0.08,0.576,0.24
				C229.235,464.62,229.303,464.848,229.303,465.145z M229.38,469.96c0,0.645,0.147,1.14,0.442,1.486
				c0.295,0.347,0.682,0.521,1.161,0.521c0.407,0,0.759-0.177,1.053-0.532c0.295-0.355,0.442-0.862,0.442-1.523
				c0-0.427-0.061-0.796-0.184-1.104c-0.123-0.309-0.297-0.548-0.522-0.715c-0.226-0.168-0.489-0.252-0.79-0.252
				c-0.309,0-0.584,0.084-0.825,0.252c-0.242,0.168-0.431,0.411-0.57,0.73C229.449,469.141,229.38,469.52,229.38,469.96z"/>
			<path style="fill:#AAAAAC;" d="M236.207,473.42l0.148-0.363l-1.995-5.022c-0.122-0.288-0.184-0.499-0.184-0.629
				c0-0.139,0.036-0.267,0.107-0.385c0.071-0.119,0.169-0.214,0.294-0.285c0.125-0.072,0.255-0.107,0.389-0.107
				c0.233,0,0.409,0.074,0.529,0.223c0.119,0.148,0.223,0.361,0.314,0.638l1.372,3.989l1.3-3.71c0.103-0.3,0.196-0.536,0.279-0.706
				c0.083-0.17,0.171-0.285,0.264-0.344c0.093-0.06,0.225-0.09,0.395-0.09c0.123,0,0.24,0.032,0.353,0.098
				c0.113,0.065,0.2,0.153,0.261,0.264c0.061,0.111,0.092,0.227,0.092,0.35c-0.016,0.075-0.041,0.182-0.077,0.321
				c-0.036,0.138-0.079,0.28-0.13,0.421l-2.113,5.533c-0.183,0.487-0.361,0.868-0.535,1.145c-0.174,0.277-0.404,0.491-0.692,0.638
				c-0.287,0.149-0.674,0.223-1.161,0.223c-0.475,0-0.831-0.051-1.068-0.154c-0.238-0.104-0.356-0.292-0.356-0.564
				c0-0.186,0.056-0.33,0.169-0.43c0.112-0.101,0.28-0.152,0.501-0.152c0.087,0,0.173,0.012,0.256,0.037
				c0.103,0.023,0.192,0.035,0.267,0.035c0.186,0,0.333-0.027,0.44-0.084c0.106-0.055,0.202-0.151,0.288-0.288
				C235.998,473.887,236.096,473.685,236.207,473.42z"/>
		</g>
		<g>
			<path style="fill:#AAAAAC;" d="M259.683,466.769h0.386v-0.487c0-0.509,0.062-0.911,0.192-1.211
				c0.128-0.299,0.347-0.516,0.654-0.653c0.307-0.136,0.727-0.204,1.26-0.204c0.95,0,1.42,0.229,1.42,0.697
				c0,0.149-0.049,0.278-0.15,0.384c-0.096,0.106-0.214,0.16-0.349,0.16c-0.062,0-0.174-0.012-0.329-0.037
				c-0.148-0.021-0.283-0.035-0.389-0.035c-0.292,0-0.479,0.088-0.566,0.259c-0.079,0.172-0.122,0.418-0.122,0.74v0.386h0.396
				c0.62,0,0.926,0.185,0.926,0.56c0,0.262-0.079,0.431-0.245,0.503c-0.163,0.071-0.39,0.107-0.68,0.107h-0.396v4.294
				c0,0.319-0.075,0.563-0.231,0.73c-0.151,0.17-0.346,0.254-0.589,0.254c-0.229,0-0.419-0.084-0.574-0.254
				c-0.153-0.167-0.228-0.411-0.228-0.73v-4.294h-0.446c-0.243,0-0.427-0.053-0.558-0.164c-0.131-0.107-0.197-0.25-0.197-0.423
				C258.869,466.962,259.14,466.769,259.683,466.769"/>
			<path style="fill:#AAAAAC;" d="M264.989,470.878v1.355c0,0.327-0.083,0.574-0.234,0.737c-0.154,0.166-0.349,0.247-0.586,0.247
				c-0.239,0-0.43-0.082-0.579-0.25c-0.148-0.165-0.225-0.41-0.225-0.734v-4.514c0-0.729,0.262-1.093,0.788-1.093
				c0.271,0,0.464,0.084,0.583,0.255c0.119,0.171,0.184,0.421,0.198,0.755c0.192-0.334,0.39-0.584,0.593-0.755
				c0.208-0.171,0.477-0.255,0.819-0.255c0.343,0,0.67,0.084,0.991,0.255c0.322,0.171,0.482,0.398,0.482,0.678
				c0,0.197-0.069,0.362-0.204,0.488c-0.137,0.131-0.284,0.195-0.441,0.195c-0.062,0-0.207-0.039-0.433-0.112
				c-0.228-0.071-0.43-0.108-0.602-0.108c-0.237,0-0.433,0.064-0.582,0.186c-0.151,0.128-0.269,0.311-0.353,0.554
				c-0.081,0.247-0.137,0.541-0.17,0.878C265.003,469.979,264.989,470.392,264.989,470.878"/>
			<path style="fill:#AAAAAC;" d="M272.44,470.32h-3.171c0.005,0.367,0.077,0.694,0.222,0.974c0.147,0.279,0.337,0.491,0.578,0.635
				c0.24,0.142,0.502,0.212,0.793,0.212c0.194,0,0.371-0.021,0.531-0.07c0.159-0.043,0.316-0.116,0.466-0.213
				c0.151-0.095,0.288-0.199,0.415-0.313c0.126-0.109,0.292-0.26,0.494-0.449c0.084-0.071,0.203-0.109,0.355-0.109
				c0.168,0,0.301,0.046,0.406,0.139c0.104,0.092,0.152,0.219,0.152,0.386c0,0.147-0.055,0.317-0.167,0.512
				c-0.117,0.198-0.289,0.385-0.522,0.566c-0.234,0.178-0.524,0.329-0.873,0.446c-0.35,0.119-0.754,0.179-1.207,0.179
				c-1.044,0-1.852-0.296-2.429-0.889c-0.578-0.595-0.87-1.401-0.87-2.418c0-0.479,0.073-0.924,0.217-1.334
				c0.14-0.411,0.349-0.76,0.624-1.055c0.272-0.294,0.606-0.518,1.008-0.674c0.399-0.156,0.842-0.234,1.33-0.234
				c0.632,0,1.175,0.134,1.629,0.404c0.452,0.264,0.796,0.61,1.018,1.034c0.226,0.426,0.339,0.855,0.339,1.296
				c0,0.405-0.118,0.669-0.351,0.791C273.191,470.26,272.863,470.32,272.44,470.32 M269.268,469.399h2.938
				c-0.039-0.553-0.186-0.969-0.446-1.242c-0.261-0.276-0.599-0.413-1.025-0.413c-0.403,0-0.735,0.137-0.995,0.418
				C269.481,468.442,269.323,468.853,269.268,469.399"/>
			<path style="fill:#AAAAAC;" d="M279.182,470.32h-3.171c0.004,0.367,0.078,0.694,0.221,0.974c0.145,0.279,0.337,0.491,0.576,0.635
				c0.239,0.142,0.504,0.212,0.795,0.212c0.192,0,0.37-0.021,0.528-0.07c0.162-0.043,0.316-0.116,0.469-0.213
				c0.151-0.095,0.287-0.199,0.415-0.313c0.125-0.109,0.29-0.26,0.493-0.449c0.084-0.071,0.204-0.109,0.355-0.109
				c0.168,0,0.302,0.046,0.407,0.139c0.103,0.092,0.15,0.219,0.15,0.386c0,0.147-0.054,0.317-0.171,0.512
				c-0.11,0.198-0.284,0.385-0.519,0.566c-0.231,0.178-0.525,0.329-0.872,0.446c-0.349,0.119-0.755,0.179-1.209,0.179
				c-1.042,0-1.849-0.296-2.429-0.889c-0.577-0.595-0.868-1.401-0.868-2.418c0-0.479,0.073-0.924,0.217-1.334
				c0.142-0.411,0.349-0.76,0.623-1.055c0.272-0.294,0.608-0.518,1.009-0.674c0.398-0.156,0.844-0.234,1.331-0.234
				c0.63,0,1.174,0.134,1.633,0.404c0.45,0.264,0.791,0.61,1.013,1.034c0.225,0.426,0.341,0.855,0.341,1.296
				c0,0.405-0.12,0.669-0.351,0.791C279.932,470.26,279.604,470.32,279.182,470.32 M276.011,469.399h2.938
				c-0.04-0.553-0.19-0.969-0.447-1.242c-0.263-0.276-0.601-0.413-1.027-0.413c-0.403,0-0.735,0.137-0.996,0.418
				C276.222,468.442,276.063,468.853,276.011,469.399"/>
			<path style="fill:#AAAAAC;" d="M282.732,467.538v0.194c0.304-0.375,0.621-0.651,0.953-0.828c0.324-0.178,0.699-0.267,1.114-0.267
				c0.497,0,0.96,0.13,1.379,0.386c0.419,0.259,0.749,0.635,0.993,1.129c0.244,0.497,0.366,1.081,0.366,1.758
				c0,0.497-0.07,0.957-0.21,1.376c-0.14,0.418-0.336,0.767-0.58,1.05c-0.246,0.281-0.535,0.501-0.868,0.654
				c-0.339,0.151-0.695,0.227-1.08,0.227c-0.461,0-0.853-0.093-1.166-0.28c-0.314-0.182-0.614-0.458-0.901-0.816v2.433
				c0,0.71-0.26,1.069-0.778,1.069c-0.306,0-0.505-0.092-0.607-0.275c-0.095-0.187-0.146-0.452-0.146-0.807v-6.996
				c0-0.309,0.067-0.537,0.2-0.692c0.134-0.15,0.32-0.228,0.553-0.228c0.231,0,0.416,0.078,0.56,0.234
				C282.661,467.018,282.732,467.241,282.732,467.538 M285.909,469.892c0-0.428-0.067-0.796-0.197-1.102
				c-0.131-0.308-0.312-0.542-0.541-0.705c-0.229-0.164-0.489-0.248-0.77-0.248c-0.446,0-0.824,0.178-1.13,0.527
				c-0.308,0.354-0.462,0.872-0.462,1.558c0,0.641,0.153,1.146,0.46,1.504c0.305,0.358,0.679,0.536,1.133,0.536
				c0.268,0,0.519-0.079,0.748-0.233c0.232-0.158,0.416-0.392,0.552-0.704C285.839,470.714,285.909,470.335,285.909,469.892"/>
			<path style="fill:#AAAAAC;" d="M289.169,465.871c-0.226,0-0.418-0.071-0.577-0.209c-0.162-0.139-0.242-0.333-0.242-0.585
				c0-0.23,0.082-0.419,0.248-0.569c0.164-0.146,0.354-0.222,0.571-0.222c0.212,0,0.397,0.067,0.559,0.2
				c0.162,0.137,0.244,0.334,0.244,0.591c0,0.25-0.079,0.444-0.236,0.585C289.577,465.8,289.389,465.871,289.169,465.871
				 M289.972,467.546v4.689c0,0.322-0.077,0.568-0.231,0.732c-0.156,0.168-0.35,0.25-0.588,0.25c-0.238,0-0.428-0.084-0.58-0.254
				c-0.146-0.173-0.222-0.416-0.222-0.729v-4.642c0-0.319,0.076-0.559,0.222-0.721c0.152-0.165,0.342-0.245,0.58-0.245
				c0.238,0,0.432,0.079,0.588,0.245C289.894,467.033,289.972,467.259,289.972,467.546"/>
			<path style="fill:#AAAAAC;" d="M295.196,472.477l-1.428-2.354l-0.88,0.83v1.291c0,0.312-0.083,0.551-0.248,0.718
				c-0.16,0.17-0.354,0.254-0.566,0.254c-0.249,0-0.447-0.082-0.588-0.25c-0.142-0.165-0.215-0.41-0.215-0.734v-6.915
				c0-0.358,0.071-0.632,0.207-0.821c0.139-0.191,0.341-0.283,0.596-0.283c0.25,0,0.445,0.086,0.593,0.257
				c0.146,0.169,0.221,0.421,0.221,0.751v3.933l1.822-1.914c0.227-0.235,0.396-0.4,0.517-0.486c0.118-0.087,0.262-0.13,0.431-0.13
				c0.204,0,0.371,0.065,0.51,0.193c0.132,0.129,0.2,0.291,0.2,0.483c0,0.237-0.221,0.556-0.659,0.951l-0.861,0.789l1.662,2.614
				c0.121,0.196,0.212,0.34,0.265,0.441c0.052,0.1,0.081,0.2,0.081,0.289c0,0.258-0.071,0.459-0.213,0.61
				c-0.14,0.148-0.327,0.221-0.554,0.221c-0.198,0-0.352-0.051-0.458-0.16C295.526,472.949,295.377,472.755,295.196,472.477"/>
			<path style="fill:#AAAAAC;" d="M298.718,473.217c-0.245,0-0.455-0.079-0.634-0.238c-0.178-0.156-0.268-0.378-0.268-0.665
				c0-0.241,0.086-0.449,0.256-0.622c0.172-0.174,0.38-0.262,0.63-0.262c0.248,0,0.46,0.087,0.639,0.258
				c0.174,0.172,0.264,0.383,0.264,0.626c0,0.283-0.089,0.505-0.264,0.662C299.163,473.138,298.955,473.217,298.718,473.217"/>
			<path style="fill:#AAAAAC;" d="M306.78,471.211c0,0.2-0.06,0.417-0.182,0.646c-0.12,0.231-0.305,0.449-0.553,0.656
				c-0.247,0.207-0.557,0.377-0.935,0.502c-0.375,0.126-0.8,0.192-1.269,0.192c-1.004,0-1.786-0.294-2.349-0.876
				c-0.56-0.585-0.841-1.368-0.841-2.35c0-0.667,0.128-1.254,0.387-1.765c0.254-0.509,0.628-0.904,1.113-1.184
				c0.487-0.28,1.072-0.419,1.746-0.419c0.421,0,0.805,0.061,1.158,0.184c0.35,0.122,0.645,0.282,0.891,0.474
				c0.242,0.197,0.428,0.402,0.556,0.62c0.129,0.22,0.192,0.426,0.192,0.617c0,0.192-0.071,0.357-0.214,0.492
				c-0.147,0.134-0.322,0.203-0.524,0.203c-0.137,0-0.249-0.035-0.338-0.104c-0.09-0.07-0.19-0.181-0.299-0.339
				c-0.198-0.299-0.404-0.526-0.622-0.674c-0.214-0.152-0.488-0.226-0.821-0.226c-0.476,0-0.865,0.186-1.159,0.561
				c-0.292,0.372-0.44,0.887-0.44,1.534c0,0.305,0.039,0.587,0.114,0.842c0.073,0.254,0.182,0.472,0.325,0.652
				c0.144,0.179,0.315,0.315,0.516,0.409c0.203,0.096,0.425,0.141,0.665,0.141c0.326,0,0.604-0.075,0.836-0.225
				c0.235-0.151,0.439-0.38,0.616-0.689c0.099-0.182,0.204-0.323,0.318-0.427c0.114-0.102,0.256-0.156,0.422-0.156
				c0.198,0,0.363,0.077,0.491,0.227C306.714,470.88,306.78,471.042,306.78,471.211"/>
			<path style="fill:#AAAAAC;" d="M313.774,469.923c0,0.481-0.076,0.928-0.222,1.337c-0.154,0.408-0.37,0.758-0.656,1.049
				c-0.284,0.293-0.626,0.518-1.02,0.675c-0.4,0.154-0.844,0.234-1.337,0.234c-0.491,0-0.933-0.08-1.326-0.239
				c-0.389-0.156-0.732-0.384-1.016-0.676c-0.288-0.298-0.505-0.646-0.657-1.048c-0.143-0.402-0.219-0.846-0.219-1.332
				c0-0.491,0.077-0.941,0.224-1.349c0.151-0.409,0.368-0.757,0.649-1.046c0.282-0.289,0.621-0.511,1.019-0.669
				c0.402-0.156,0.844-0.234,1.326-0.234c0.49,0,0.936,0.078,1.337,0.239c0.398,0.157,0.739,0.384,1.027,0.674
				c0.286,0.297,0.502,0.643,0.65,1.045C313.699,468.991,313.774,469.434,313.774,469.923 M312.147,469.923
				c0-0.662-0.146-1.176-0.436-1.543c-0.289-0.372-0.681-0.555-1.171-0.555c-0.317,0-0.597,0.082-0.839,0.246
				c-0.242,0.164-0.425,0.406-0.556,0.728c-0.131,0.321-0.197,0.696-0.197,1.124c0,0.424,0.064,0.792,0.194,1.108
				c0.13,0.319,0.314,0.561,0.553,0.729c0.241,0.167,0.522,0.253,0.845,0.253c0.49,0,0.882-0.185,1.171-0.557
				C312,471.086,312.147,470.574,312.147,469.923"/>
			<path style="fill:#AAAAAC;" d="M319.956,470.042v2.154c0,0.342-0.075,0.594-0.231,0.767c-0.156,0.17-0.357,0.255-0.611,0.255
				c-0.245,0-0.446-0.085-0.595-0.255c-0.154-0.173-0.232-0.425-0.232-0.767v-2.582c0-0.408-0.013-0.726-0.04-0.953
				c-0.029-0.221-0.105-0.41-0.226-0.552c-0.123-0.147-0.318-0.22-0.582-0.22c-0.532,0-0.879,0.181-1.048,0.55
				c-0.167,0.36-0.254,0.883-0.254,1.567v2.189c0,0.336-0.076,0.591-0.226,0.765c-0.156,0.171-0.355,0.258-0.603,0.258
				c-0.247,0-0.448-0.087-0.604-0.258c-0.157-0.173-0.235-0.428-0.235-0.765v-4.637c0-0.306,0.07-0.538,0.209-0.695
				c0.143-0.16,0.329-0.239,0.556-0.239c0.223,0,0.407,0.077,0.557,0.222c0.148,0.149,0.222,0.354,0.222,0.615v0.153
				c0.283-0.334,0.584-0.582,0.903-0.738c0.323-0.162,0.676-0.241,1.07-0.241c0.407,0,0.757,0.082,1.049,0.244
				c0.293,0.163,0.533,0.409,0.725,0.735c0.275-0.33,0.568-0.577,0.881-0.738c0.313-0.161,0.658-0.241,1.039-0.241
				c0.441,0,0.826,0.089,1.146,0.262c0.319,0.174,0.558,0.425,0.717,0.747c0.138,0.295,0.206,0.756,0.206,1.385v3.164
				c0,0.342-0.076,0.594-0.229,0.767c-0.154,0.17-0.359,0.255-0.612,0.255c-0.247,0-0.446-0.087-0.603-0.258
				c-0.156-0.173-0.235-0.428-0.235-0.765v-2.726c0-0.349-0.015-0.627-0.043-0.836c-0.029-0.211-0.11-0.388-0.239-0.529
				c-0.132-0.142-0.331-0.215-0.596-0.215c-0.214,0-0.416,0.066-0.609,0.192c-0.192,0.124-0.342,0.298-0.45,0.508
				C320.018,468.864,319.956,469.348,319.956,470.042"/>
		</g>
		<g>
			<path style="fill:#AAAAAC;" d="M244.516,469.531c-0.001-0.003-0.001-0.006-0.001-0.011
				C244.515,469.525,244.515,469.527,244.516,469.531z"/>
			<path style="fill:#AAAAAC;" d="M244.598,470.049c0.001,0,0.001,0,0.001,0c-0.031-0.148-0.055-0.294-0.074-0.439
				C244.544,469.756,244.568,469.903,244.598,470.049z"/>
			<path style="fill:#AAAAAC;" d="M245.134,471.553c-0.004-0.006-0.007-0.013-0.011-0.021
				C245.127,471.539,245.13,471.547,245.134,471.553z"/>
			<path style="fill:#AAAAAC;" d="M245.083,471.453c-0.014-0.027-0.027-0.056-0.041-0.084
				C245.055,471.398,245.069,471.425,245.083,471.453z"/>
			<path style="fill:#AAAAAC;" d="M244.748,470.628c0.079,0.25,0.175,0.493,0.286,0.724c-0.113-0.236-0.206-0.479-0.283-0.724
				C244.75,470.628,244.749,470.628,244.748,470.628z"/>
			<path style="fill:#AAAAAC;" d="M250.789,463.32c0.313,0,0.544,0.025,0.809,0.069l0.075-0.477c0,0-0.732-0.225-1.694-0.147
				l-0.076-0.259c0.299-0.063,0.524-0.329,0.524-0.646c0-0.364-0.296-0.659-0.661-0.659c-0.364,0-0.66,0.295-0.66,0.659
				c0,0.317,0.224,0.583,0.522,0.646l0.084,0.289c-1.021,0.14-1.834,0.539-1.834,0.539l0.144,0.441
				c0.618-0.206,1.154-0.331,1.64-0.383C250.139,463.342,250.497,463.32,250.789,463.32z"/>
			<path style="fill:#AAAAAC;" d="M245.122,465.732l0.004-0.005c0.024-0.031,0.047-0.06,0.071-0.089l-0.196-0.141l-0.305-0.223
				c-0.017,0.024-0.497,0.465-0.876,1.28c-0.016-0.026-0.035-0.051-0.056-0.074c-0.114-0.124-0.272-0.187-0.474-0.184
				c-0.003,0-0.006,0-0.009,0c-0.125,0-0.21-0.041-0.267-0.092c0.056-0.071,0.089-0.16,0.089-0.258c0-0.23-0.187-0.418-0.418-0.418
				c-0.23,0-0.418,0.188-0.418,0.418c0,0.231,0.187,0.418,0.418,0.418c0.036,0,0.071-0.006,0.104-0.013
				c0.103,0.114,0.266,0.214,0.505,0.209c0.123-0.001,0.213,0.031,0.273,0.097c0.069,0.076,0.093,0.185,0.1,0.267
				c-0.001,0.001-0.001,0.003-0.002,0.003c-0.272,0.743-0.194,1.669-0.194,1.669l0.661,0.026c0.013-0.337,0.062-0.926,0.232-1.394
				C244.693,466.322,245.105,465.756,245.122,465.732z"/>
			<path style="fill:#AAAAAC;" d="M256.539,463.873c-0.23,0-0.418,0.187-0.418,0.418c0,0.036,0.005,0.07,0.015,0.103
				c-0.115,0.104-0.214,0.267-0.211,0.507c0.002,0.123-0.03,0.212-0.096,0.273c-0.053,0.047-0.12,0.072-0.185,0.088
				c-0.492-0.689-1.097-1.11-1.097-1.11l-0.474,0.508c0.358,0.326,0.725,0.734,1.08,1.244c0.246,0.352,0.499,0.806,0.71,1.259
				l0.64-0.304c0,0-0.292-0.722-0.704-1.37c0.072-0.025,0.144-0.064,0.207-0.12c0.125-0.113,0.187-0.273,0.183-0.474
				c-0.001-0.13,0.042-0.218,0.093-0.276c0.071,0.054,0.16,0.089,0.257,0.089c0.232,0,0.419-0.187,0.419-0.418
				C256.958,464.059,256.771,463.873,256.539,463.873z"/>
			<path style="fill:#AAAAAC;" d="M254.878,469.624c-0.881,0.429-2.33,0.996-4.238,1.262c-0.749,0.104-1.475,0.142-2.143,0.142
				c-0.869,0-1.637-0.065-2.227-0.139c-0.673-0.085-1.199-0.188-1.52-0.261c0.077,0.245,0.171,0.488,0.283,0.724
				c0.002,0.006,0.005,0.013,0.008,0.017c0.013,0.028,0.027,0.056,0.041,0.084c0.013,0.027,0.027,0.054,0.041,0.079
				c0.004,0.007,0.007,0.015,0.011,0.021c0.189,0.357,0.417,0.684,0.675,0.968c0.9,0.984,1.817,1.14,1.826,1.141l0.014,0.002
				l0.013,0.005c0.008,0.003,0.821,0.266,2.057,0.266c1.216,0,2.409-0.245,3.546-0.729c0.842-0.431,1.639-1.085,2.034-1.669
				c0.305-0.452,0.525-0.933,0.656-1.434c0.07-0.266,0.124-0.692,0.092-1.141C255.8,469.128,255.408,469.366,254.878,469.624z"/>
			<path style="fill:#AAAAAC;" d="M245.405,465.94c-0.026,0.037-0.408,0.578-0.709,1.408c-0.226,0.622-0.216,1.527-0.216,1.538
				v0.002c0,0.212,0.012,0.423,0.035,0.632c0,0.005,0,0.008,0.001,0.011c0.002,0.027,0.007,0.052,0.009,0.079
				c0.019,0.145,0.043,0.291,0.074,0.439c0.438,0.111,3.049,0.72,5.968,0.314c1.829-0.254,3.218-0.795,4.062-1.204
				c0.701-0.34,1.151-0.648,1.325-0.774c-0.173-0.643-0.651-1.65-1.09-2.279c-1.253-1.791-2.604-2.25-3.298-2.364
				c-0.265-0.043-0.477-0.068-0.777-0.068c-0.28,0-0.626,0.023-1.089,0.071c-0.464,0.048-0.982,0.17-1.583,0.372
				c-0.842,0.282-1.605,0.724-2.204,1.28l-0.021,0.019C245.804,465.497,245.618,465.669,245.405,465.94z M253.073,465.524
				c0.601,0,1.09,0.488,1.09,1.089c0,0.601-0.489,1.09-1.09,1.09c-0.601,0-1.089-0.489-1.089-1.09
				C251.984,466.012,252.472,465.524,253.073,465.524z M247.922,465.48c0.973,0,1.76,0.789,1.76,1.761
				c0,0.972-0.788,1.759-1.76,1.759c-0.972,0-1.76-0.787-1.76-1.759C246.162,466.269,246.951,465.48,247.922,465.48z"/>
		</g>
	</g>
</g>
</svg>
